<?xml version="1.0" encoding="utf-8"?>
<!-- Generator: Adobe Illustrator 16.0.4, SVG Export Plug-In . SVG Version: 6.00 Build 0)  -->
<!DOCTYPE svg PUBLIC "-//W3C//DTD SVG 1.1//EN" "http://www.w3.org/Graphics/SVG/1.1/DTD/svg11.dtd">
<svg version="1.1" id="gr_x5F_icon03_x5F_eagerBeaver"
	 xmlns="http://www.w3.org/2000/svg" xmlns:xlink="http://www.w3.org/1999/xlink" x="0px" y="0px" width="250px" height="250px"
	 viewBox="0 0 250 250" enable-background="new 0 0 250 250" xml:space="preserve">
<g id="gr_x5F_big_2_">
	<path id="gr_195_" fill="#F3BA48" d="M237.668,172.701c0,9.541-6.76,21.251-15.023,26.019l-82.623,47.702
		c-8.262,4.771-21.781,4.771-30.043,0L27.354,198.72c-8.263-4.768-15.021-16.478-15.021-26.019V77.298
		c0-9.541,6.759-21.249,15.021-26.019l82.624-47.701c8.263-4.771,21.782-4.771,30.043,0l82.623,47.701
		c8.264,4.77,15.023,16.478,15.023,26.019V172.701z"/>
	<g>
		<path fill="#FFFFFF" d="M72.677,91.654c-5.037,0-9.128-4.087-9.128-9.131c0-5.043,4.091-9.131,9.128-9.131
			c5.043,0,9.134,4.088,9.134,9.131C81.811,87.566,77.72,91.654,72.677,91.654z M179.422,73.392c-5.043,0-9.135,4.088-9.135,9.131
			c0,5.043,4.092,9.131,9.135,9.131c5.037,0,9.127-4.087,9.127-9.131C188.549,77.48,184.459,73.392,179.422,73.392z
			 M169.146,106.449c-1.395,1.394-1.395,3.655,0,5.05c9.285,9.286,9.285,24.396,0,33.687c-9.291,9.287-24.398,9.284-33.691,0
			c-2.211-2.215-3.895-4.802-5.074-7.599c6.684-4.689,19.25-16.015,19.207-25.915c-0.049-12.512-15.705-15.453-22.74-6.193
			c-0.184,0.248-0.377,0.628-0.533,0.628c-0.15,0-0.363-0.391-0.558-0.636c-7.104-9.19-22.726-6.118-22.677,6.388
			c0.038,9.816,12.476,20.939,19.241,25.646c-1.175,2.83-2.874,5.446-5.109,7.681c-4.499,4.499-10.48,6.977-16.842,6.977
			c-6.362,0-12.347-2.478-16.846-6.977c-9.288-9.29-9.288-24.4,0-33.687c1.395-1.394,1.395-3.655,0-5.05
			c-1.396-1.395-3.655-1.395-5.051,0c-12.071,12.069-12.071,31.712,0,43.787c5.849,5.849,13.627,9.07,21.896,9.07
			c8.269,0,16.043-3.222,21.892-9.07c1.553-1.55,2.902-3.243,4.075-5.036c1.168,1.793,2.521,3.486,4.07,5.036
			c6.037,6.035,13.965,9.054,21.895,9.054c7.932,0,15.859-3.019,21.896-9.054c12.068-12.074,12.068-31.717,0-43.787
			C172.803,105.054,170.543,105.054,169.146,106.449z M129.986,157.193v29.144h0.359c10.084,0,18.26-8.177,18.26-18.262v-1.648
			c-6.676-0.793-13.139-3.72-18.256-8.83C130.225,157.467,130.113,157.324,129.986,157.193z M104.066,166.427v1.648
			c0,10.085,8.183,18.262,18.259,18.262h0.359v-29.144c-0.13,0.131-0.237,0.273-0.366,0.403
			C117.211,162.706,110.742,165.634,104.066,166.427z"/>
	</g>
</g>
</svg>
